<?xml version="1.0" encoding="UTF-8" standalone="no"?>
<svg width="52px" height="49px" viewBox="0 0 52 49" version="1.1" xmlns="http://www.w3.org/2000/svg" xmlns:xlink="http://www.w3.org/1999/xlink">
    <!-- Generator: Sketch 40.2 (33826) - http://www.bohemiancoding.com/sketch -->
    <title>Page 1</title>
    <desc>Created with Sketch.</desc>
    <defs>
        <linearGradient x1="50%" y1="100%" x2="50%" y2="0%" id="linearGradient-1">
            <stop stop-color="#CD1572" offset="0%"></stop>
            <stop stop-color="#FD45C2" offset="100%"></stop>
        </linearGradient>
        <linearGradient x1="50%" y1="0%" x2="50%" y2="100%" id="linearGradient-2">
            <stop stop-color="#FFC4ED" offset="0%"></stop>
            <stop stop-color="#FF5DBF" offset="100%"></stop>
        </linearGradient>
    </defs>
    <g id="Page-1" stroke="none" stroke-width="1" fill="none" fill-rule="evenodd">
        <g id="Desktop-Copy" transform="translate(-845.000000, -1176.000000)">
            <g id="2part" transform="translate(-1.000000, 859.000000)">
                <g id="4benefit" transform="translate(763.000000, 287.000000)">
                    <g id="Page-1" transform="translate(58.000000, 0.000000)">
                        <path d="M76.4861344,44.8674891 C76.4861344,36.8118797 70.4537906,30.2814891 63.0101813,30.2814891 C57.76515,30.2814891 53.2333219,33.5311453 51.0068531,38.2661766 L51.0068531,78.0939891 L51.0100406,78.0836297 C77.9412281,61.0687547 76.4861344,44.8674891 76.4861344,44.8674891" id="Fill-3" fill="url(#linearGradient-1)"></path>
                        <path d="M50.9931469,38.2956609 C48.7706625,33.5446922 44.2308656,30.2814891 38.9746781,30.2814891 C31.5318656,30.2814891 25.5003187,36.8118797 25.5003187,44.8674891 C25.5003187,44.9137078 25.5058969,44.9583328 25.5066937,45.0053484 C25.4405531,46.5919266 25.4891625,61.9716141 50.9915531,78.0836297 L50.9931469,78.0939891 C50.9955375,78.0915984 50.9979281,78.0908016 51.0003187,78.0884109 C51.0027094,78.0908016 51.0051,78.0915984 51.0074906,78.0939891 L51.0074906,38.2661766 C51.0027094,38.2757391 50.9979281,38.2860984 50.9931469,38.2956609" id="Fill-5" fill="url(#linearGradient-2)"></path>
                    </g>
                </g>
            </g>
        </g>
    </g>
</svg>