<?xml version="1.0" encoding="UTF-8" standalone="no"?>
<svg width="142px" height="44px" viewBox="0 0 142 44" version="1.1" xmlns="http://www.w3.org/2000/svg" xmlns:xlink="http://www.w3.org/1999/xlink">
    <!-- Generator: Sketch 40.2 (33826) - http://www.bohemiancoding.com/sketch -->
    <title>Download_on_the_App_Store_Badge_RU_135x40</title>
    <desc>Created with Sketch.</desc>
    <defs></defs>
    <g id="Page-1" stroke="none" stroke-width="1" fill="none" fill-rule="evenodd">
        <g id="Desktop-Copy" transform="translate(-602.000000, -561.000000)">
            <g id="1part" transform="translate(39.000000, 275.000000)">
                <g id="right_text" transform="translate(560.000000, 47.000000)">
                    <g id="stores" transform="translate(3.000000, 230.000000)">
                        <g id="Download_on_the_App_Store_Badge_RU_135x40" transform="translate(0.000000, 8.928398)">
                            <g id="RU_Download_on_the">
                                <g id="Group">
                                    <path d="M137.680411,43.6353147 L4.22883439,43.6353147 C1.97501958,43.6353147 0.145589903,41.7224053 0.145589903,39.360844 L0.145589903,5.27333525 C0.145589903,2.91288995 1.97501958,0.993284312 4.22883439,0.993284312 L137.679347,0.993284312 C139.93529,0.993284312 141.757274,2.91288995 141.757274,5.27333525 L141.758337,39.360844 C141.758337,41.7224053 139.93529,43.6353147 137.680411,43.6353147 Z" id="Shape" fill="#000000"></path>
                                    <g transform="translate(12.763463, 6.696299)" id="Shape" fill="#FFFFFF">
                                        <path d="M18.4803043,15.3836303 C18.4494593,11.7866018 21.2872025,10.0366358 21.4169644,9.95516412 C19.8098317,7.49650643 17.3188292,7.16057545 16.4434683,7.13379025 C14.3513241,6.90276795 12.3219335,8.44738085 11.2561843,8.44738085 C10.1691627,8.44738085 8.52799413,7.15611125 6.7591909,7.19405694 C4.48304003,7.23088658 2.35366898,8.61367227 1.18581213,10.7609521 C-1.22435511,15.1392154 0.573165908,21.5732424 2.88228906,25.1122363 C4.03738245,26.8454616 5.38711865,28.780692 7.15379463,28.7126129 C8.88218022,28.6378376 9.52779872,27.5563853 11.6135613,27.5563853 C13.6801786,27.5563853 14.2864431,28.7126129 16.0882186,28.669087 C17.9431752,28.6378376 19.1110321,26.9280493 20.2257078,25.1791993 C21.5605533,23.1926307 22.0966188,21.2361954 22.1178912,21.1357509 C22.0742827,21.1201262 18.5154038,19.6949306 18.4803043,15.3836303 L18.4803043,15.3836303 Z"></path>
                                        <path d="M15.0767142,4.80571039 C16.0063197,3.58586797 16.6423656,1.92630194 16.4658044,0.242182804 C15.1203227,0.304681592 13.4376728,1.21872637 12.4687133,2.41178359 C11.611434,3.4631025 10.8456263,5.18628337 11.0434599,6.80678766 C12.5548667,6.92508894 14.106691,6.00657997 15.0767142,4.80571039 L15.0767142,4.80571039 Z"></path>
                                    </g>
                                    <g transform="translate(43.871086, 20.088896)" id="Shape" fill="#FFFFFF">
                                        <path d="M12.3858771,15.0711364 L9.97039173,15.0711364 L8.64724608,10.7084977 L4.04814497,10.7084977 L2.78775301,15.0711364 L0.436084981,15.0711364 L4.99264122,0.218745759 L7.80698478,0.218745759 L12.3858771,15.0711364 L12.3858771,15.0711364 Z M8.24838787,8.87817607 L7.05181322,4.99990306 C6.92524222,4.60370538 6.68805453,3.67068776 6.33812293,2.20196623 L6.29557805,2.20196623 C6.15624358,2.83365041 5.93181936,3.76666804 5.62336901,4.99990306 L4.4480668,8.87817607 L8.24838787,8.87817607 L8.24838787,8.87817607 Z"></path>
                                        <path d="M24.1037996,9.58463559 C24.1037996,11.4060288 23.6347423,12.8457331 22.6966278,13.9026322 C21.8563665,14.8434622 20.8129534,15.3133192 19.5674522,15.3133192 C18.2230341,15.3133192 17.2572654,14.8066326 16.6690825,13.7932593 L16.6265376,13.7932593 L16.6265376,19.434891 L14.3588957,19.434891 L14.3588957,7.88712386 C14.3588957,6.74205678 14.3301779,5.56685635 14.2748696,4.36152258 L16.2691606,4.36152258 L16.3957317,6.05903431 L16.4382765,6.05903431 C17.1945117,4.78004125 18.3421597,4.14166077 19.8822843,4.14166077 C21.0863042,4.14166077 22.0914269,4.64053502 22.8955251,5.63939959 C23.7017505,6.6393802 24.1037996,7.95408685 24.1037996,9.58463559 L24.1037996,9.58463559 Z M21.7936128,9.67168747 C21.7936128,8.62929697 21.5702522,7.76993863 21.1214038,7.09361246 C20.6310741,6.38826899 19.9726921,6.03559726 19.1473215,6.03559726 C18.5878564,6.03559726 18.0794451,6.23202202 17.6252786,6.6192913 C17.1700484,7.00990873 16.8722343,7.51994348 16.7328998,8.15162766 C16.6627007,8.44626481 16.6276012,8.68733156 16.6276012,8.87706002 L16.6276012,10.6627397 C16.6276012,11.4417424 16.8552163,12.0990958 17.3104465,12.6359157 C17.7656767,13.1727357 18.3570504,13.4405876 19.0845678,13.4405876 C19.9386562,13.4405876 20.6034199,13.0946122 21.0788589,12.4048934 C21.5553615,11.7140586 21.7936128,10.803362 21.7936128,9.67168747 L21.7936128,9.67168747 Z"></path>
                                        <path d="M35.8429945,9.58463559 C35.8429945,11.4060288 35.3739373,12.8457331 34.4347591,13.9026322 C33.5955615,14.8434622 32.5521484,15.3133192 31.3066471,15.3133192 C29.962229,15.3133192 28.9964603,14.8066326 28.4093411,13.7932593 L28.3667962,13.7932593 L28.3667962,19.434891 L26.0991543,19.434891 L26.0991543,7.88712386 C26.0991543,6.74205678 26.0704365,5.56685635 26.0151282,4.36152258 L28.0094192,4.36152258 L28.1359902,6.05903431 L28.1785351,6.05903431 C28.9337067,4.78004125 30.0813547,4.14166077 31.6225428,4.14166077 C32.8254992,4.14166077 33.8306219,4.64053502 34.6368473,5.63939959 C35.4398818,6.6393802 35.8429945,7.95408685 35.8429945,9.58463559 L35.8429945,9.58463559 Z M33.5328078,9.67168747 C33.5328078,8.62929697 33.3083835,7.76993863 32.8595351,7.09361246 C32.3692054,6.38826899 31.7129507,6.03559726 30.8865165,6.03559726 C30.3259877,6.03559726 29.8186401,6.23202202 29.3634099,6.6192913 C28.9081797,7.00990873 28.6114292,7.51994348 28.4720948,8.15162766 C28.4029593,8.44626481 28.3667962,8.68733156 28.3667962,8.87706002 L28.3667962,10.6627397 C28.3667962,11.4417424 28.5944113,12.0990958 29.0475142,12.6359157 C29.5027444,13.1716196 30.0941182,13.4405876 30.8237628,13.4405876 C31.6778512,13.4405876 32.3426149,13.0946122 32.8180539,12.4048934 C33.2945565,11.7140586 33.5328078,10.803362 33.5328078,9.67168747 L33.5328078,9.67168747 Z"></path>
                                        <path d="M48.9680888,10.9060385 C48.9680888,12.1694069 48.5500854,13.1972888 47.7108878,13.9908002 C46.7887276,14.8579708 45.5049359,15.2909982 43.8552584,15.2909982 C42.3321518,15.2909982 41.1111138,14.9829684 40.1868264,14.3657929 L40.7122556,12.3825724 C41.7078057,13.0142566 42.8001454,13.3312147 43.9903383,13.3312147 C44.8444267,13.3312147 45.5091904,13.1280937 45.9867566,12.7240836 C46.4621956,12.3200736 46.6993833,11.7776734 46.6993833,11.1013473 C46.6993833,10.4986804 46.5036769,9.99087771 46.1112004,9.57905534 C45.7208512,9.16723297 45.0688509,8.78442789 44.1583906,8.43064011 C41.6801516,7.46079284 40.4420957,6.04006146 40.4420957,4.17179411 C40.4420957,2.95083564 40.8760534,1.94973898 41.7450325,1.17073623 C42.6108207,0.390617426 43.7659141,0.00111604979 45.2103127,0.00111604979 C46.4983588,0.00111604979 47.5683624,0.236602555 48.4224508,0.706459517 L47.8555403,2.64615405 C47.0578239,2.19080574 46.1558725,1.96313158 45.1464953,1.96313158 C44.3487789,1.96313158 43.7254965,2.16960079 43.2787753,2.58030711 C42.9011895,2.94748749 42.7118648,3.39502346 42.7118648,3.92514711 C42.7118648,4.5121893 42.92778,4.99767096 43.3617378,5.37935998 C43.7393236,5.73203172 44.4253597,6.11372075 45.4209098,6.52554312 C46.6387569,7.04004207 47.5332629,7.64159291 48.1086823,8.33131168 C48.6819746,9.01879835 48.9680888,9.87927273 48.9680888,10.9060385 L48.9680888,10.9060385 Z"></path>
                                        <path d="M56.4655596,6.14720224 L53.9660482,6.14720224 L53.9660482,11.3468782 C53.9660482,12.6693972 54.4063876,13.3300987 55.2891938,13.3300987 C55.6944338,13.3300987 56.0305383,13.293269 56.2964438,13.2196098 L56.3591975,15.0264944 C55.9124763,15.2017142 55.3242933,15.2898821 54.5957123,15.2898821 C53.7001427,15.2898821 53.0002795,15.0030573 52.4950591,14.4305238 C51.9919659,13.8568742 51.7388239,12.8948393 51.7388239,11.543303 L51.7388239,6.14497014 L50.2497532,6.14497014 L50.2497532,4.35929048 L51.7388239,4.35929048 L51.7388239,2.398391 L53.9660482,1.69304753 L53.9660482,4.35929048 L56.4655596,4.35929048 L56.4655596,6.14720224 L56.4655596,6.14720224 Z"></path>
                                        <path d="M67.7431427,9.62816153 C67.7431427,11.274335 67.2942943,12.6258713 66.3987246,13.6827704 C65.4595465,14.770919 64.2129816,15.3133192 62.65903,15.3133192 C61.1614504,15.3133192 59.9691302,14.7921239 59.0799423,13.7497334 C58.1907544,12.7073429 57.7461604,11.3915202 57.7461604,9.80561345 C57.7461604,8.14604741 58.2035178,6.78669877 59.1214235,5.72979962 C60.037202,4.67178442 61.2731307,4.14277682 62.8270823,4.14277682 C64.3246619,4.14277682 65.5297455,4.66397207 66.4391422,5.70747862 C67.309185,6.71973578 67.7431427,8.02663008 67.7431427,9.62816153 L67.7431427,9.62816153 Z M65.390411,9.70516897 C65.390411,8.7174649 65.1893865,7.87038311 64.7820193,7.1639236 C64.3065803,6.30902946 63.6269259,5.88269844 62.746247,5.88269844 C61.834723,5.88269844 61.1423052,6.31014551 60.6668662,7.1639236 C60.259499,7.87149916 60.0584744,8.73197355 60.0584744,9.74981096 C60.0584744,10.737515 60.259499,11.5845968 60.6668662,12.2899403 C61.1571959,13.1448344 61.8421684,13.5711654 62.7260382,13.5711654 C63.5918264,13.5711654 64.2714808,13.135906 64.7618105,12.2676193 C65.1798139,11.5477672 65.390411,10.691757 65.390411,9.70516897 L65.390411,9.70516897 Z"></path>
                                        <path d="M75.1140425,6.45411593 C74.8896183,6.41058999 74.6503033,6.38826899 74.3992886,6.38826899 C73.6015721,6.38826899 72.9846714,6.70411108 72.5507137,7.33691131 C72.1731279,7.89493621 71.9838032,8.60027968 71.9838032,9.45182567 L71.9838032,15.0711364 L69.7172249,15.0711364 L69.7384974,7.73422504 C69.7384974,6.49987397 69.7097796,5.37601183 69.6534076,4.36263863 L71.6285535,4.36263863 L71.711516,6.41170604 L71.7742697,6.41170604 C72.0135846,5.70747862 72.3911704,5.14052533 72.9080907,4.71531036 C73.4133111,4.33250528 73.9589491,4.14166077 74.547132,4.14166077 C74.7566655,4.14166077 74.9459902,4.15728546 75.1140425,4.18518671 L75.1140425,6.45411593 L75.1140425,6.45411593 Z"></path>
                                        <path d="M85.2556773,9.20964286 C85.2556773,9.63597388 85.2290868,9.99534191 85.1727148,10.288863 L78.3697891,10.288863 C78.3963797,11.3468782 78.7250389,12.1560143 79.3568303,12.7140392 C79.9301225,13.2129135 80.6714669,13.4629086 81.5819273,13.4629086 C82.5891772,13.4629086 83.5081466,13.2943851 84.3345808,12.956222 L84.6898305,14.6079757 C83.7240618,15.0499314 82.5838591,15.2697932 81.2681588,15.2697932 C79.6854894,15.2697932 78.4431791,14.7809634 77.5391004,13.8044198 C76.6371491,12.8278763 76.1851097,11.5165178 76.1851097,9.87146039 C76.1851097,8.25653634 76.6052404,6.91169634 77.4465653,5.8391725 C78.3272443,4.69410541 79.5174372,4.12157187 81.0150168,4.12157187 C82.4860059,4.12157187 83.599618,4.69410541 84.3558532,5.8391725 C84.9546723,6.74875308 85.2556773,7.87373126 85.2556773,9.20964286 L85.2556773,9.20964286 Z M83.093334,8.59246733 C83.1082247,7.88712386 82.9603813,7.27776068 82.6529945,6.76326172 C82.2605181,6.1014442 81.6574444,5.77109346 80.8459009,5.77109346 C80.1045565,5.77109346 79.5014828,6.09363185 79.0409346,6.74094073 C78.6633488,7.25543968 78.4389246,7.87261521 78.3697891,8.59135128 L83.093334,8.59135128 L83.093334,8.59246733 Z"></path>
                                    </g>
                                    <g transform="translate(44.934708, 7.531704)" id="Shape" fill="#FFFFFF">
                                        <path d="M0.450975687,0.585325692 C0.69241786,0.43354292 0.964705067,0.306313244 1.27102818,0.201404564 C1.57628766,0.0964958838 1.93579187,0.0440415437 2.34954079,0.0440415437 C3.01643172,0.0440415437 3.54186094,0.210332962 3.92689207,0.54179975 C4.3119232,0.873266537 4.50443876,1.3208025 4.50443876,1.88440765 C4.50443876,2.33194361 4.37574051,2.70693634 4.11834401,3.01050188 C3.86094751,3.31406743 3.53122472,3.51607244 3.13236651,3.61651692 L3.13236651,3.64888236 C3.35253624,3.68571201 3.56100613,3.74821079 3.75671257,3.83861083 C3.95348262,3.92901086 4.12578937,4.04954424 4.27256919,4.20132701 C4.42041263,4.35310978 4.53741104,4.52944565 4.62356442,4.73256671 C4.70865417,4.93457172 4.75226267,5.15778168 4.75226267,5.40442868 C4.75226267,5.80843871 4.67461827,6.14771784 4.51932947,6.42226609 C4.36404067,6.69681434 4.16195251,6.9200243 3.91093774,7.09412806 C3.66098659,7.26711578 3.38019041,7.39211336 3.07067644,7.46688869 C2.76116246,7.54166403 2.45164849,7.58072577 2.14213451,7.58072577 C1.8113481,7.58072577 1.48481618,7.54389613 1.16147512,7.47246894 C0.83813406,7.40104175 0.539256305,7.28162443 0.263778232,7.11533301 L0.542447171,6.21691293 C0.721135651,6.31066111 0.951941604,6.40106114 1.23380141,6.48811303 C1.51566121,6.57516491 1.80071188,6.6175748 2.09001704,6.6175748 C2.56439241,6.6175748 2.93134197,6.50596982 3.18873847,6.28275987 C3.44613497,6.05843386 3.57589684,5.75933251 3.57589684,5.38433979 C3.57589684,5.13099648 3.52377937,4.92452727 3.42060804,4.761584 C3.3163731,4.59864073 3.18235674,4.47141106 3.01749534,4.37654683 C2.85263395,4.28279864 2.66862736,4.21806776 2.46547557,4.18235416 C2.26232379,4.14664057 2.06129925,4.12766772 1.86240195,4.12766772 L1.39759918,4.12766772 L1.39759918,3.23817604 L1.86240195,3.23817604 C2.07512633,3.23817604 2.27296001,3.2102748 2.45590298,3.15112416 C2.63778232,3.09420562 2.79626199,3.01273398 2.93027835,2.9078253 C3.06429471,2.80291662 3.16959327,2.67791905 3.24511043,2.53394862 C3.31956396,2.3899782 3.35785435,2.22703493 3.35785435,2.04623487 C3.35785435,1.72146438 3.24723767,1.46700503 3.02706794,1.28285681 C2.8068982,1.09870859 2.51121132,1.00607646 2.14000727,1.00607646 C1.88580164,1.00607646 1.63053238,1.0496024 1.37632674,1.13553824 C1.12212111,1.22259012 0.894506021,1.3163383 0.694545103,1.41678278 L0.450975687,0.585325692 L0.450975687,0.585325692 Z"></path>
                                        <path d="M9.31200977,7.46019239 L9.23011088,6.85417736 L9.19926585,6.85417736 C8.86316133,7.33742692 8.37495887,7.57960972 7.73465849,7.57960972 C7.5070434,7.57960972 7.30176437,7.53943193 7.11563054,7.46019239 C6.92949671,7.38095286 6.76782618,7.27269603 6.63061895,7.1354219 C6.4923481,6.99814778 6.38704953,6.83632056 6.31046876,6.64770815 C6.2349516,6.46021178 6.19772484,6.25374257 6.19772484,6.03053261 C6.19772484,5.37429534 6.45193047,4.88100133 6.96140536,4.55288269 C7.47088025,4.22476405 8.19201591,4.06070474 9.12800318,4.06070474 L9.12800318,3.9636084 C9.12800318,3.27054148 8.78126244,2.92456605 8.08778096,2.92456605 C7.59319677,2.92456605 7.15711179,3.05514388 6.78058964,3.31406743 L6.55403817,2.54622517 C7.01458646,2.24377568 7.58787866,2.09199291 8.27391479,2.09199291 C9.5853606,2.09199291 10.2416153,2.81742527 10.2416153,4.26829 L10.2416153,6.20575243 C10.2416153,6.74703658 10.2660786,7.16555525 10.3139416,7.46130844 L9.31200977,7.46130844 L9.31200977,7.46019239 Z M9.15778459,4.84082354 C8.53556578,4.84082354 8.07182663,4.92341122 7.76763077,5.08970264 C7.4634349,5.25599406 7.31133697,5.52719416 7.31133697,5.90218689 C7.31133697,6.17673514 7.38259964,6.3820883 7.52618859,6.51936242 C7.66977755,6.65663655 7.8516569,6.72471558 8.07076301,6.72471558 C8.21435197,6.72471558 8.35049557,6.69793039 8.48132106,6.64324395 C8.61108294,6.58967356 8.72489048,6.51489822 8.82380732,6.42115004 C8.92378778,6.32740186 9.00355942,6.21356478 9.06631311,6.0796388 C9.12800318,5.94571283 9.15778459,5.80397451 9.15778459,5.65219173 L9.15778459,4.84082354 L9.15778459,4.84082354 Z"></path>
                                        <polygon points="15.6171604 2.19913369 15.6171604 3.16228465 13.5324615 3.16228465 13.5324615 7.46019239 12.4188494 7.46019239 12.4188494 2.19913369"></polygon>
                                        <path d="M21.9925101,4.76493215 C21.9925101,5.18345082 21.9372018,5.5662559 21.8276487,5.91223134 C21.717032,6.25932282 21.5649341,6.55507601 21.3681641,6.79949092 C21.1724576,7.04502187 20.9384608,7.23698244 20.6672372,7.37314051 C20.39495,7.51041463 20.0950086,7.57960972 19.7642222,7.57960972 C19.103713,7.57960972 18.6293377,7.33073062 18.3400325,6.83297241 L18.3187601,6.83297241 L18.3187601,9.60412404 L17.2040843,9.60412404 L17.2040843,3.93124296 C17.2040843,3.64999841 17.2008934,3.36652177 17.1934481,3.08081302 C17.1870663,2.79622032 17.1764301,2.50158318 17.1636667,2.19801764 L18.1432624,2.19801764 L18.2060161,3.03170683 L18.2272886,3.03170683 C18.5984926,2.40448685 19.1622122,2.08976081 19.919511,2.08976081 C20.2141343,2.08976081 20.4885487,2.1544917 20.7395635,2.28395347 C20.9905783,2.4145313 21.2086208,2.59644741 21.3947546,2.83081787 C21.5808884,3.06518832 21.7266046,3.34643287 21.8329668,3.67566756 C21.939329,4.00490225 21.9925101,4.36761843 21.9925101,4.76493215 L21.9925101,4.76493215 Z M20.8586892,4.80845809 C20.8586892,4.54841849 20.8289077,4.30846779 20.7704085,4.08860598 C20.7119093,3.86874417 20.625756,3.68124781 20.513012,3.52611689 C20.4002681,3.37098597 20.2619973,3.24822049 20.1003267,3.15782046 C19.9386562,3.06742042 19.7578405,3.02277843 19.5578796,3.02277843 C19.4004635,3.02277843 19.2451747,3.05960807 19.0930768,3.13103526 C18.9409789,3.20246245 18.8090898,3.30067483 18.6963458,3.42344031 C18.5825383,3.54620578 18.4921304,3.6946404 18.422995,3.86762812 C18.3538596,4.04061584 18.3187601,4.22476405 18.3187601,4.42007277 L18.3187601,5.2972879 C18.3187601,5.49148057 18.3474778,5.67228063 18.4070407,5.83857205 C18.4655399,6.00486347 18.5474388,6.14883389 18.653801,6.27159937 C18.7601631,6.39436484 18.8877978,6.49034513 19.0356412,6.55842416 C19.1834847,6.62761925 19.3462188,6.66110074 19.5249073,6.66110074 C19.9450379,6.66110074 20.2715699,6.49369328 20.5055667,6.15776229 C20.7395635,5.8218313 20.8586892,5.37094719 20.8586892,4.80845809 L20.8586892,4.80845809 Z"></path>
                                        <path d="M27.9785742,2.19913369 L26.7086096,5.84750045 C26.406541,6.71355508 26.1119177,7.4222467 25.8268671,7.97469135 C25.5407528,8.52713599 25.2684656,8.92891392 25.0068146,9.18225722 C24.6217835,9.5427413 24.212289,9.76371916 23.7783313,9.84184264 L23.5102986,8.85748673 C23.7985401,8.77824719 24.0740182,8.62311627 24.3356692,8.39209397 C24.5962565,8.16107166 24.80579,7.87313082 24.9653333,7.52603933 C25.0206417,7.4110862 25.0472322,7.33184667 25.0472322,7.28832073 C25.0472322,7.24479478 25.0259598,7.1622071 24.9855421,7.03944162 L23.1688759,2.20024974 L24.3962956,2.20024974 L25.34611,5.13434463 C25.3950366,5.27161876 25.4428996,5.42674968 25.4907626,5.59973739 C25.5396892,5.77272511 25.590743,5.96468568 25.6460514,6.17338699 L25.6673238,6.17338699 C25.7013597,6.05731781 25.7396501,5.91223134 25.7800677,5.73477942 C25.821549,5.55844355 25.8768573,5.35420644 25.9449291,5.12318413 L26.7915721,2.20024974 L27.9785742,2.20024974 L27.9785742,2.19913369 Z"></path>
                                        <path d="M29.9079843,4.38547522 L30.4227773,4.38547522 C30.8003631,4.38547522 31.0939227,4.31404804 31.2992018,4.16896156 C31.5044808,4.02387509 31.6087157,3.84753923 31.6087157,3.63772187 C31.6087157,3.42120821 31.5214988,3.24822049 31.3449375,3.11875871 C31.1705035,2.98929694 30.9269341,2.92345 30.6174201,2.92345 C30.4174592,2.92345 30.2164347,2.95804754 30.0154101,3.02612658 C29.8122584,3.09532167 29.6250609,3.18014145 29.4527541,3.28058593 L29.1645126,2.52390418 C29.4527541,2.35872881 29.7399321,2.24489173 30.02711,2.18350899 C30.3121606,2.12212625 30.5982749,2.09087686 30.8875801,2.09087686 C31.1162588,2.09087686 31.3449375,2.1143139 31.5746798,2.16118799 C31.8033586,2.20806209 32.0086376,2.28730162 32.1873261,2.3989066 C32.3660145,2.51051158 32.513858,2.6567141 32.6255383,2.83751417 C32.7393458,3.01831423 32.7957178,3.24152419 32.7957178,3.50937614 C32.7957178,3.67566756 32.7648728,3.82187008 32.7021191,3.94798371 C32.6414926,4.07409733 32.5585301,4.18570231 32.4553588,4.28279864 C32.3532511,4.37989497 32.2373163,4.46025056 32.1107453,4.52051725 C31.9841743,4.58189999 31.8533488,4.62765803 31.7246505,4.65667532 L31.7246505,4.68904077 C31.8884483,4.71136176 32.0490552,4.7548877 32.204344,4.81961859 C32.3585692,4.88434948 32.49684,4.96916926 32.6223474,5.07407794 C32.7446639,5.17898662 32.8446444,5.30510025 32.9212252,5.45241882 C32.9956787,5.60085344 33.0329055,5.76826091 33.0329055,5.95575728 C33.0329055,6.26601912 32.9627064,6.52605872 32.8169902,6.73476003 C32.6734013,6.94457739 32.4883311,7.10975276 32.2639068,7.23251824 C32.0416099,7.35528371 31.7948496,7.44345165 31.5268169,7.49813809 C31.2587841,7.55170848 30.9971332,7.57960972 30.7439911,7.57960972 C30.4344772,7.57960972 30.1270904,7.54501218 29.8260854,7.47693314 C29.5229532,7.40773805 29.250666,7.30171332 29.0092238,7.1577429 L29.2995926,6.3887846 C29.4782811,6.49034513 29.6814329,6.57516491 29.9122388,6.64324395 C30.1430448,6.71132298 30.3781052,6.74592053 30.6184838,6.74592053 C30.9960695,6.74592053 31.2875019,6.66891309 31.4906537,6.51378217 C31.6916783,6.35865125 31.793786,6.16557464 31.793786,5.93455233 C31.793786,5.78276956 31.7608137,5.65553988 31.6916783,5.5506312 C31.6225428,5.44572252 31.5257532,5.36090274 31.4034367,5.29617185 C31.278993,5.23144096 31.135404,5.18568292 30.969479,5.16112983 C30.8056812,5.13546068 30.6248655,5.12318413 30.4334135,5.12318413 L29.9079843,5.12318413 L29.9079843,4.38547522 L29.9079843,4.38547522 Z"></path>
                                        <path d="M35.8600125,2.19913369 L35.8600125,4.06070474 C35.8600125,4.48703575 35.8536308,4.86984083 35.8387401,5.20800392 C35.8238494,5.54728305 35.807895,5.90441899 35.7866226,6.27941172 L35.807895,6.30061666 C35.9387205,6.02606841 36.0674188,5.75821646 36.1939898,5.49371266 C36.322688,5.23032491 36.4513863,4.96135692 36.5822118,4.68680867 L37.8202677,2.19690159 L39.2636026,2.19690159 L39.2636026,7.45796029 L38.2106169,7.45796029 L38.2106169,5.59638925 C38.2106169,5.20688787 38.2212531,4.81738649 38.2372075,4.42788512 C38.2542254,4.03726769 38.272307,3.64441816 38.2935794,3.24710444 L38.2414619,3.24710444 C38.1255272,3.57187493 38.0085287,3.85311947 37.8904667,4.09195413 C37.7745319,4.32967273 37.6575335,4.57520369 37.5415987,4.82854699 C37.3278107,5.26157431 37.11615,5.69460163 36.9055528,6.12762894 C36.6960193,6.56065626 36.4737223,7.00484408 36.2407891,7.45907634 L34.7974542,7.45907634 L34.7974542,2.19913369 L35.8600125,2.19913369 L35.8600125,2.19913369 Z"></path>
                                        <polygon points="45.1454317 2.19913369 45.1454317 3.16228465 43.6191343 3.16228465 43.6191343 7.46019239 42.5236037 7.46019239 42.5236037 3.16228465 41.0068789 3.16228465 41.0068789 2.19913369"></polygon>
                                        <path d="M50.8294272,4.58078394 C50.8294272,4.68122842 50.8251727,4.7772087 50.818791,4.86760873 C50.8124092,4.95800877 50.801773,5.0394804 50.7879459,5.11090759 L47.4449823,5.11090759 C47.459873,5.60866579 47.60878,5.99370297 47.8938307,6.26378702 C48.1788814,6.53387107 48.5564672,6.67002914 49.0233972,6.67002914 C49.5115996,6.67002914 49.9625753,6.58744146 50.3752606,6.42115004 L50.5496946,7.23363429 C50.0742556,7.45014795 49.5147905,7.55840477 48.8670448,7.55840477 C48.4766955,7.55840477 48.1257003,7.49478994 47.8161863,7.36867631 C47.5066723,7.24256268 47.2450214,7.06399472 47.0312334,6.83297241 C46.8195726,6.60195011 46.6547112,6.32405371 46.5409037,5.99928322 C46.4292234,5.67451273 46.3728514,5.3106805 46.3728514,4.90667048 C46.3728514,4.50266045 46.4292234,4.12878377 46.5409037,3.78615649 C46.6547112,3.4435292 46.8153181,3.14554391 47.0205971,2.89331666 C47.2280034,2.63997335 47.4779546,2.44243254 47.7683233,2.29734607 C48.0608194,2.15337565 48.3873513,2.08083241 48.7447282,2.08083241 C49.0606239,2.08083241 49.3467382,2.13998305 49.6073256,2.25940038 C49.8647221,2.37770165 50.0848918,2.54734122 50.2657076,2.76831908 C50.4486505,2.98818089 50.587985,3.25268469 50.683711,3.55848233 C50.7815642,3.86427997 50.8294272,4.20579121 50.8294272,4.58078394 L50.8294272,4.58078394 Z M49.7658053,4.27833444 C49.7658053,3.86651207 49.6722065,3.53281318 49.4828818,3.27723778 C49.2935571,3.02166238 49.0202063,2.89220061 48.6628294,2.89220061 C48.3384247,2.89220061 48.0650738,3.02166238 47.8385224,3.28170198 C47.6119709,3.54174158 47.4811454,3.87320837 47.4460459,4.27833444 L49.7658053,4.27833444 L49.7658053,4.27833444 Z"></path>
                                        <path d="M55.3189752,2.24265963 C55.5189362,2.20694604 55.7720782,2.17792874 56.0815921,2.15560774 C56.3911061,2.13328675 56.7070018,2.1232423 57.0314065,2.1232423 C57.2366855,2.1232423 57.4696187,2.1366349 57.7270152,2.16118799 C57.9844117,2.18574109 58.2322356,2.24377568 58.4641052,2.33417571 C58.6991656,2.42457574 58.8938085,2.55961777 59.0522881,2.74041783 C59.2107678,2.9212179 59.291603,3.1656328 59.291603,3.47589465 C59.291603,3.63548977 59.2628853,3.77834414 59.2086405,3.90334171 C59.1522686,4.02945534 59.0799423,4.13994427 58.9863436,4.23369245 C58.8927448,4.32744063 58.7863826,4.40556412 58.6661934,4.46583081 C58.5460041,4.52721355 58.4215603,4.57297159 58.2896712,4.60087283 L58.3003074,4.63323828 C58.6640661,4.69796916 58.9608166,4.83524329 59.1873681,5.04506065 C59.4139196,5.25487801 59.5277271,5.54281886 59.5277271,5.91111529 C59.5277271,6.27941172 59.4298739,6.57181676 59.2394856,6.78833042 C59.0459064,7.00484408 58.8097823,7.16778735 58.5268589,7.27604418 C58.2439355,7.38430101 57.947185,7.45349609 57.6334165,7.48251339 C57.3217753,7.51041463 57.0409791,7.52603933 56.7942188,7.52603933 C56.5176771,7.52603933 56.2475172,7.51934303 55.9837389,7.50371834 C55.7178334,7.48920969 55.4976637,7.47470104 55.3189752,7.46019239 L55.3189752,2.24265963 L55.3189752,2.24265963 Z M56.3911061,4.34306533 L56.9580166,4.34306533 C57.1303233,4.34306533 57.2941211,4.33078878 57.4483463,4.30511964 C57.6036351,4.28056654 57.7387151,4.24038875 57.8557135,4.18681836 C57.9737755,4.13213192 58.0631197,4.06070474 58.1301279,3.9703047 C58.1950089,3.87990467 58.2279811,3.77053179 58.2279811,3.63995396 C58.2279811,3.40223536 58.1343824,3.22701554 57.9429305,3.11541056 C57.7536058,3.00380558 57.4568553,2.9480031 57.0516153,2.9480031 C56.9356805,2.9480031 56.8335728,2.95135124 56.7463558,2.95916359 C56.6612661,2.96585989 56.543204,2.97702039 56.3911061,2.99152904 L56.3911061,4.34306533 L56.3911061,4.34306533 Z M56.3911061,6.67002914 C56.5283133,6.68453779 56.6442481,6.69458224 56.7357196,6.70239459 C56.8293183,6.71020693 56.9367441,6.71355508 57.0622515,6.71355508 C57.2143495,6.71355508 57.367511,6.70351064 57.5259907,6.68118964 C57.6834067,6.65998469 57.8291229,6.61869085 57.9599484,6.55730811 C58.0907739,6.49704143 58.1950089,6.41445374 58.2737169,6.30954506 C58.3524249,6.20575243 58.3939062,6.06736226 58.3939062,5.89549059 C58.3939062,5.59415715 58.2652079,5.38657188 58.0120659,5.27161876 C57.7567966,5.15666563 57.4143104,5.09974709 56.979289,5.09974709 L56.3911061,5.09974709 L56.3911061,6.67002914 L56.3911061,6.67002914 Z"></path>
                                    </g>
                                    <path d="" id="Path-2" stroke="#979797" stroke-width="0.8"></path>
                                </g>
                            </g>
                        </g>
                    </g>
                </g>
            </g>
        </g>
    </g>
</svg>