<?xml version="1.0" encoding="UTF-8" standalone="no"?>
<svg width="207px" height="53px" viewBox="0 0 207 53" version="1.1" xmlns="http://www.w3.org/2000/svg" xmlns:xlink="http://www.w3.org/1999/xlink">
    <!-- Generator: Sketch 40.2 (33826) - http://www.bohemiancoding.com/sketch -->
    <title>Page 1 Copy</title>
    <desc>Created with Sketch.</desc>
    <defs></defs>
    <g id="Page-1" stroke="none" stroke-width="1" fill="none" fill-rule="evenodd">
        <g id="Desktop-Copy" transform="translate(-271.000000, -29.000000)">
            <g id="head_logos-copy" transform="translate(271.000000, 12.000000)">
                <g id="Page-1-Copy" transform="translate(0.000000, 17.000000)">
                    <path d="M131.724613,32.3910041 C128.310738,32.3910041 125.543874,29.5755143 125.543874,26.1045551 C125.543874,22.6325143 128.310738,19.8159429 131.724613,19.8159429 C135.136319,19.8159429 137.902099,22.6325143 137.902099,26.1045551 C137.902099,29.5755143 135.136319,32.3910041 131.724613,32.3910041 L131.724613,32.3910041 Z M131.724613,12.4446163 C124.308377,12.4446163 118.301042,18.5590857 118.301042,26.1045551 C118.301042,33.6467796 124.308377,39.761249 131.724613,39.761249 C139.136513,39.761249 145.146016,33.6467796 145.146016,26.1045551 C145.146016,18.5590857 139.136513,12.4446163 131.724613,12.4446163 L131.724613,12.4446163 Z M160.888853,32.3910041 C157.477147,32.3910041 154.708115,29.5755143 154.708115,26.1045551 C154.708115,22.6325143 157.477147,19.8159429 160.888853,19.8159429 C164.301644,19.8159429 167.069592,22.6325143 167.069592,26.1045551 C167.069592,29.5755143 164.301644,32.3910041 160.888853,32.3910041 L160.888853,32.3910041 Z M160.888853,12.4446163 C153.476953,12.4446163 147.466366,18.5590857 147.466366,26.1045551 C147.466366,33.6467796 153.476953,39.761249 160.888853,39.761249 C168.302921,39.761249 174.313508,33.6467796 174.313508,26.1045551 C174.313508,18.5590857 168.302921,12.4446163 160.888853,12.4446163 L160.888853,12.4446163 Z M190.085607,32.3120449 C186.671733,32.3120449 183.903785,29.4998 183.903785,26.0255959 C183.903785,22.5535551 186.671733,19.735902 190.085607,19.735902 C193.49623,19.735902 196.265262,22.5535551 196.265262,26.0255959 C196.265262,29.4998 193.49623,32.3120449 190.085607,32.3120449 L190.085607,32.3120449 Z M198.445806,13.2882898 L197.959194,15.5229429 C195.967225,13.6225143 193.331497,12.3656571 190.085607,12.3656571 C182.668288,12.3656571 176.662037,18.4812082 176.662037,26.0255959 C176.662037,33.5667388 182.438529,39.6822898 189.851513,39.6822898 C190.903853,39.6822898 191.900921,39.4475755 192.853555,39.0646776 L190.43133,49.2969224 L198.490241,49.2969224 L206.247864,13.2882898 L198.445806,13.2882898 Z M86.5075759,38.8083306 L88.045445,31.7517592 L77.2803613,31.7517592 L89.6104084,19.2578204 L90.8805864,13.3964531 L70.1177277,13.3964531 L68.5906963,20.4973714 L79.1921309,20.4973714 L66.1749738,32.8669224 L64.8950419,38.8083306 L86.5075759,38.8083306 Z M112.146314,13.3964531 L102.929937,30.8280449 L100.646435,13.3964531 L92.5842723,13.3964531 L97.3138429,38.8083306 L106.456524,38.8083306 L120.593215,13.3964531 L112.146314,13.3964531 Z" id="Fill-1" fill="#FFFFFF"></path>
                    <path d="M19.7498592,0.0799326531 L17.3460581,1.67858571 L17.3460581,36.9181776 C14.5466812,34.6402592 9.86696387,34.6424224 5.88194293,37.2026469 C1.1220267,40.2615041 -0.832009948,45.7994633 1.51651885,49.5732796 C3.86613141,53.3460143 9.62961832,53.9257694 14.3895346,50.8669122 C17.835922,48.6528102 19.8105503,45.1385857 19.7466079,41.9358714 L19.7498592,0.0799326531 Z" id="Fill-3" fill="#FFFFFF"></path>
                    <path d="M51.1904497,35.7562878 C51.1904497,31.6114714 48.0865335,28.2508388 44.2564916,28.2508388 C41.5579052,28.2508388 39.2267168,29.9230429 38.0811723,32.3599612 C38.0790047,32.3642878 38.0757534,32.3696959 38.0735859,32.3751041 C36.9302089,29.9306143 34.5946853,28.2508388 31.8906801,28.2508388 C28.0606382,28.2508388 24.9578058,31.6114714 24.9578058,35.7562878 C24.9578058,35.7800837 24.9599733,35.802798 24.9610571,35.8265939 C24.9263764,36.6432265 24.9523869,44.556451 38.0735859,52.8471653 L38.0735859,52.8525735 C38.0746696,52.8514918 38.0768372,52.8504102 38.0779209,52.8504102 C38.0790047,52.8504102 38.0800885,52.8514918 38.0811723,52.8525735 L38.082256,52.8471653 C51.9393346,44.0924306 51.1904497,35.7562878 51.1904497,35.7562878" id="Fill-5" fill="#F9218E"></path>
                    <polygon id="Fill-7" fill="#00ED92" points="26.9601785 0.0584081633 26.9601785 13.2510816 26.9601785 26.4437551 48.9921314 13.2510816"></polygon>
                </g>
            </g>
        </g>
    </g>
</svg>